<mxfile host="app.diagrams.net" modified="2020-12-28T05:25:16.923Z" agent="5.0 (Windows NT 10.0; Win64; x64) AppleWebKit/537.36 (KHTML, like Gecko) Chrome/87.0.4280.88 Safari/537.36" etag="_-asYP9QOifcydUXC95t" version="14.1.2" type="github">
  <diagram id="C5RBs43oDa-KdzZeNtuy" name="Page-1">
    <mxGraphModel dx="2249" dy="762" grid="1" gridSize="10" guides="1" tooltips="1" connect="1" arrows="1" fold="1" page="1" pageScale="1" pageWidth="827" pageHeight="1169" math="0" shadow="0">
      <root>
        <mxCell id="WIyWlLk6GJQsqaUBKTNV-0" />
        <mxCell id="WIyWlLk6GJQsqaUBKTNV-1" parent="WIyWlLk6GJQsqaUBKTNV-0" />
        <mxCell id="WIyWlLk6GJQsqaUBKTNV-2" value="" style="rounded=0;html=1;jettySize=auto;orthogonalLoop=1;fontSize=11;endArrow=block;endFill=0;endSize=8;strokeWidth=1;shadow=0;labelBackgroundColor=none;edgeStyle=orthogonalEdgeStyle;entryX=0.5;entryY=0;entryDx=0;entryDy=0;" parent="WIyWlLk6GJQsqaUBKTNV-1" source="WIyWlLk6GJQsqaUBKTNV-3" target="DMmbzsqvoCTRYG2FOpCv-1" edge="1">
          <mxGeometry relative="1" as="geometry">
            <mxPoint x="220" y="150" as="targetPoint" />
          </mxGeometry>
        </mxCell>
        <mxCell id="WIyWlLk6GJQsqaUBKTNV-3" value="微服务sy:go:newscomment&lt;br&gt;" style="rounded=1;whiteSpace=wrap;html=1;fontSize=12;glass=0;strokeWidth=1;shadow=0;" parent="WIyWlLk6GJQsqaUBKTNV-1" vertex="1">
          <mxGeometry x="160" y="80" width="120" height="40" as="geometry" />
        </mxCell>
        <mxCell id="DMmbzsqvoCTRYG2FOpCv-15" value="未通过" style="edgeStyle=orthogonalEdgeStyle;rounded=0;orthogonalLoop=1;jettySize=auto;html=1;entryX=0;entryY=0.5;entryDx=0;entryDy=0;" edge="1" parent="WIyWlLk6GJQsqaUBKTNV-1" source="DMmbzsqvoCTRYG2FOpCv-1" target="DMmbzsqvoCTRYG2FOpCv-22">
          <mxGeometry relative="1" as="geometry">
            <mxPoint x="10" y="720" as="targetPoint" />
            <Array as="points">
              <mxPoint x="-20" y="185" />
              <mxPoint x="-20" y="730" />
            </Array>
          </mxGeometry>
        </mxCell>
        <mxCell id="DMmbzsqvoCTRYG2FOpCv-1" value="&lt;span&gt;验证classId和newsId&lt;/span&gt;" style="rhombus;whiteSpace=wrap;html=1;" vertex="1" parent="WIyWlLk6GJQsqaUBKTNV-1">
          <mxGeometry x="165" y="160" width="110" height="50" as="geometry" />
        </mxCell>
        <mxCell id="DMmbzsqvoCTRYG2FOpCv-9" style="edgeStyle=orthogonalEdgeStyle;rounded=0;orthogonalLoop=1;jettySize=auto;html=1;entryX=0.5;entryY=0;entryDx=0;entryDy=0;" edge="1" parent="WIyWlLk6GJQsqaUBKTNV-1" source="DMmbzsqvoCTRYG2FOpCv-4" target="DMmbzsqvoCTRYG2FOpCv-10">
          <mxGeometry relative="1" as="geometry">
            <mxPoint x="220" y="330" as="targetPoint" />
          </mxGeometry>
        </mxCell>
        <mxCell id="DMmbzsqvoCTRYG2FOpCv-4" value="获取参数" style="rounded=1;whiteSpace=wrap;html=1;" vertex="1" parent="WIyWlLk6GJQsqaUBKTNV-1">
          <mxGeometry x="160" y="240" width="120" height="60" as="geometry" />
        </mxCell>
        <mxCell id="DMmbzsqvoCTRYG2FOpCv-5" value="Yes" style="rounded=0;html=1;jettySize=auto;orthogonalLoop=1;fontSize=11;endArrow=block;endFill=0;endSize=8;strokeWidth=1;shadow=0;labelBackgroundColor=none;edgeStyle=orthogonalEdgeStyle;exitX=0.5;exitY=1;exitDx=0;exitDy=0;entryX=0.5;entryY=0;entryDx=0;entryDy=0;" edge="1" parent="WIyWlLk6GJQsqaUBKTNV-1" source="DMmbzsqvoCTRYG2FOpCv-1" target="DMmbzsqvoCTRYG2FOpCv-4">
          <mxGeometry y="20" relative="1" as="geometry">
            <mxPoint as="offset" />
            <mxPoint x="230" y="620" as="sourcePoint" />
            <mxPoint x="220" y="320" as="targetPoint" />
          </mxGeometry>
        </mxCell>
        <mxCell id="DMmbzsqvoCTRYG2FOpCv-12" style="edgeStyle=orthogonalEdgeStyle;rounded=0;orthogonalLoop=1;jettySize=auto;html=1;entryX=0.5;entryY=0;entryDx=0;entryDy=0;" edge="1" parent="WIyWlLk6GJQsqaUBKTNV-1" source="DMmbzsqvoCTRYG2FOpCv-10" target="DMmbzsqvoCTRYG2FOpCv-11">
          <mxGeometry relative="1" as="geometry" />
        </mxCell>
        <mxCell id="DMmbzsqvoCTRYG2FOpCv-10" value="根据条件获取根评论列表（db操作）" style="rounded=1;whiteSpace=wrap;html=1;" vertex="1" parent="WIyWlLk6GJQsqaUBKTNV-1">
          <mxGeometry x="160" y="330" width="120" height="50" as="geometry" />
        </mxCell>
        <mxCell id="DMmbzsqvoCTRYG2FOpCv-18" value="是" style="edgeStyle=orthogonalEdgeStyle;rounded=0;orthogonalLoop=1;jettySize=auto;html=1;entryX=0.5;entryY=0;entryDx=0;entryDy=0;" edge="1" parent="WIyWlLk6GJQsqaUBKTNV-1" source="DMmbzsqvoCTRYG2FOpCv-11" target="DMmbzsqvoCTRYG2FOpCv-16">
          <mxGeometry relative="1" as="geometry" />
        </mxCell>
        <mxCell id="DMmbzsqvoCTRYG2FOpCv-23" value="否" style="edgeStyle=orthogonalEdgeStyle;rounded=0;orthogonalLoop=1;jettySize=auto;html=1;entryX=0;entryY=0.5;entryDx=0;entryDy=0;" edge="1" parent="WIyWlLk6GJQsqaUBKTNV-1" source="DMmbzsqvoCTRYG2FOpCv-11" target="DMmbzsqvoCTRYG2FOpCv-22">
          <mxGeometry relative="1" as="geometry">
            <mxPoint x="70" y="730" as="targetPoint" />
            <Array as="points">
              <mxPoint x="30" y="435" />
              <mxPoint x="30" y="730" />
            </Array>
          </mxGeometry>
        </mxCell>
        <mxCell id="DMmbzsqvoCTRYG2FOpCv-11" value="是否有根评论" style="rhombus;whiteSpace=wrap;html=1;" vertex="1" parent="WIyWlLk6GJQsqaUBKTNV-1">
          <mxGeometry x="160" y="410" width="120" height="50" as="geometry" />
        </mxCell>
        <mxCell id="DMmbzsqvoCTRYG2FOpCv-21" style="edgeStyle=orthogonalEdgeStyle;rounded=0;orthogonalLoop=1;jettySize=auto;html=1;entryX=0.5;entryY=0;entryDx=0;entryDy=0;" edge="1" parent="WIyWlLk6GJQsqaUBKTNV-1" source="DMmbzsqvoCTRYG2FOpCv-16" target="DMmbzsqvoCTRYG2FOpCv-20">
          <mxGeometry relative="1" as="geometry" />
        </mxCell>
        <mxCell id="DMmbzsqvoCTRYG2FOpCv-16" value="根据根评论id获取子评论列表（db操作）" style="rounded=1;whiteSpace=wrap;html=1;" vertex="1" parent="WIyWlLk6GJQsqaUBKTNV-1">
          <mxGeometry x="160" y="490" width="120" height="60" as="geometry" />
        </mxCell>
        <mxCell id="DMmbzsqvoCTRYG2FOpCv-24" style="edgeStyle=orthogonalEdgeStyle;rounded=0;orthogonalLoop=1;jettySize=auto;html=1;entryX=0.5;entryY=0;entryDx=0;entryDy=0;" edge="1" parent="WIyWlLk6GJQsqaUBKTNV-1" source="DMmbzsqvoCTRYG2FOpCv-20" target="DMmbzsqvoCTRYG2FOpCv-22">
          <mxGeometry relative="1" as="geometry" />
        </mxCell>
        <mxCell id="DMmbzsqvoCTRYG2FOpCv-20" value="组合最终评论列表" style="rounded=1;whiteSpace=wrap;html=1;" vertex="1" parent="WIyWlLk6GJQsqaUBKTNV-1">
          <mxGeometry x="160" y="584.5" width="120" height="60" as="geometry" />
        </mxCell>
        <mxCell id="DMmbzsqvoCTRYG2FOpCv-22" value="返回数据" style="rounded=0;whiteSpace=wrap;html=1;" vertex="1" parent="WIyWlLk6GJQsqaUBKTNV-1">
          <mxGeometry x="160" y="700" width="120" height="60" as="geometry" />
        </mxCell>
      </root>
    </mxGraphModel>
  </diagram>
</mxfile>
